<svg id="Layer_1_1_" enable-background="new 0 0 64 64" height="512" viewBox="0 0 64 64" width="512" xmlns="http://www.w3.org/2000/svg"><path d="m3 8v53h47v-53zm7 10c-1.657 0-3-1.343-3-3s1.343-3 3-3 3 1.343 3 3-1.343 3-3 3zm10 0c-1.657 0-3-1.343-3-3s1.343-3 3-3 3 1.343 3 3-1.343 3-3 3zm10 0c-1.657 0-3-1.343-3-3s1.343-3 3-3 3 1.343 3 3-1.343 3-3 3zm10 0c-1.657 0-3-1.343-3-3s1.343-3 3-3 3 1.343 3 3-1.343 3-3 3z" fill="#5573ff"/><path d="m55 56 3 5 3-5v-3h-6z" fill="#8c421c"/><path d="m55 11h6v4h-6z" fill="#8c421c"/><path d="m55 15h6v38h-6z" fill="#d44427"/><g fill="#fbf5fc"><path d="m9 33h11v11h-11z"/><path d="m20 33h12v11h-12z"/><path d="m9 22h11v11h-11z"/><path d="m9 44h11v11h-11z"/><path d="m32 33h11v11h-11z"/><path d="m20 44h12v11h-12z"/><path d="m20 22h12v11h-12z"/><path d="m32 22h11v11h-11z"/><path d="m58 3c-1.657 0-3 1.343-3 3v5h6v-5c0-1.657-1.343-3-3-3z"/><path d="m32 44h11v11h-11z"/></g><path d="m46.214 58h-43.214v3h47v-53h-3.786z" fill="#4761d6"/><path d="m10 8h2v4h-2z" fill="#4761d6"/><path d="m20 8h2v4h-2z" fill="#4761d6"/><path d="m30 8h2v4h-2z" fill="#4761d6"/><path d="m40 8h2v4h-2z" fill="#4761d6"/><path d="m11 11c-2.209 0-4 1.791-4 4 0-1.657 1.343-3 3-3s3 1.343 3 3-1.343 3-3 3-3-1.343-3-3c0 2.209 1.791 4 4 4s4-1.791 4-4-1.791-4-4-4z" fill="#4761d6"/><path d="m21 11c-2.209 0-4 1.791-4 4 0-1.657 1.343-3 3-3s3 1.343 3 3-1.343 3-3 3-3-1.343-3-3c0 2.209 1.791 4 4 4s4-1.791 4-4-1.791-4-4-4z" fill="#4761d6"/><path d="m31 11c-2.209 0-4 1.791-4 4 0-1.657 1.343-3 3-3s3 1.343 3 3-1.343 3-3 3-3-1.343-3-3c0 2.209 1.791 4 4 4s4-1.791 4-4-1.791-4-4-4z" fill="#4761d6"/><path d="m41 11c-2.209 0-4 1.791-4 4 0-1.657 1.343-3 3-3s3 1.343 3 3-1.343 3-3 3-3-1.343-3-3c0 2.209 1.791 4 4 4s4-1.791 4-4-1.791-4-4-4z" fill="#4761d6"/><path d="m58 15h3v38h-3z" fill="#f74f2e"/><path d="m3 62h47c.553 0 1-.448 1-1v-53c0-.552-.447-1-1-1h-3v-1c0-2.206-1.794-4-4-4s-4 1.794-4 4v1h-2v-1c0-2.206-1.794-4-4-4s-4 1.794-4 4v1h-2v-1c0-2.206-1.794-4-4-4s-4 1.794-4 4v1h-2v-1c0-2.206-1.794-4-4-4s-4 1.794-4 4v1h-6c-.553 0-1 .448-1 1v53c0 .552.447 1 1 1zm38-56c0-1.103.897-2 2-2s2 .897 2 2v1h-4zm-10 0c0-1.103.897-2 2-2s2 .897 2 2v1h-4zm-10 0c0-1.103.897-2 2-2s2 .897 2 2v1h-4zm-10 0c0-1.103.897-2 2-2s2 .897 2 2v1h-4zm-7 3h5v2.142c-1.721.447-3 2-3 3.858 0 2.206 1.794 4 4 4s4-1.794 4-4c0-1.858-1.279-3.411-3-3.858v-2.142h8v2.142c-1.721.447-3 2-3 3.858 0 2.206 1.794 4 4 4s4-1.794 4-4c0-1.858-1.279-3.411-3-3.858v-2.142h8v2.142c-1.721.447-3 2-3 3.858 0 2.206 1.794 4 4 4s4-1.794 4-4c0-1.858-1.279-3.411-3-3.858v-2.142h8v2.142c-1.721.447-3 2-3 3.858 0 2.206 1.794 4 4 4s4-1.794 4-4c0-1.858-1.279-3.411-3-3.858v-2.142h8v51h-45zm7 4.278c.595.347 1 .985 1 1.722 0 1.103-.897 2-2 2s-2-.897-2-2c0-.737.405-1.375 1-1.722v1.722h2zm10 0c.595.347 1 .985 1 1.722 0 1.103-.897 2-2 2s-2-.897-2-2c0-.737.405-1.375 1-1.722v1.722h2zm10 0c.595.347 1 .985 1 1.722 0 1.103-.897 2-2 2s-2-.897-2-2c0-.737.405-1.375 1-1.722v1.722h2zm10 0c.595.347 1 .985 1 1.722 0 1.103-.897 2-2 2s-2-.897-2-2c0-.737.405-1.375 1-1.722v1.722h2z"/><path d="m58 2c-2.206 0-4 1.794-4 4v5 45c0 .181.049.359.143.515l3 5c.18.301.505.485.857.485s.677-.184.857-.485l3-5c.094-.156.143-.334.143-.515v-45-5c0-2.206-1.794-4-4-4zm-2 4c0-1.103.897-2 2-2s2 .897 2 2v4h-4zm0 10h4v36h-4zm0-2v-2h4v2zm2 45.056-2-3.333v-1.723h4v1.723z"/><path d="m43 21h-34c-.553 0-1 .448-1 1v33c0 .552.447 1 1 1h34c.553 0 1-.448 1-1v-2h-2v1h-9v-9h9v6h2v-29c0-.552-.447-1-1-1zm-1 11h-9v-9h9zm-21 2h10v9h-10zm-2 9h-9v-9h9zm2-11v-9h10v9zm-2-9v9h-9v-9zm-9 22h9v9h-9zm21 9h-10v-9h10zm2-11v-9h9v9z"/><path d="m12.707 30.707 1.793-1.793 1.793 1.793 1.414-1.414-1.793-1.793 1.793-1.793-1.414-1.414-1.793 1.793-1.793-1.793-1.414 1.414 1.793 1.793-1.793 1.793z"/><path d="m29.707 36.707-1.414-1.414-1.793 1.793-1.793-1.793-1.414 1.414 1.793 1.793-1.793 1.793 1.414 1.414 1.793-1.793 1.793 1.793 1.414-1.414-1.793-1.793z"/><path d="m17.707 47.707-1.414-1.414-1.793 1.793-1.793-1.793-1.414 1.414 1.793 1.793-1.793 1.793 1.414 1.414 1.793-1.793 1.793 1.793 1.414-1.414-1.793-1.793z"/></svg>