<?xml version="1.0" standalone="no"?>
<!DOCTYPE svg PUBLIC "-//W3C//DTD SVG 20010904//EN"
 "http://www.w3.org/TR/2001/REC-SVG-20010904/DTD/svg10.dtd">
<svg version="1.0" xmlns="http://www.w3.org/2000/svg"
 width="512.000000pt" height="512.000000pt" viewBox="0 0 512.000000 512.000000"
 preserveAspectRatio="xMidYMid meet">
<metadata>
Created by potrace 1.11, written by Peter Selinger 2001-2013
</metadata>
<g transform="translate(0.000000,512.000000) scale(0.100000,-0.100000)"
fill="#000000" stroke="none">
<path d="M3890 5084 c-36 -19 -157 -83 -270 -141 -113 -58 -266 -137 -340
-176 -295 -153 -423 -218 -595 -307 -99 -51 -225 -116 -280 -145 -55 -29 -141
-73 -192 -99 -50 -26 -95 -52 -100 -59 -5 -7 -96 -221 -202 -477 -106 -256
-199 -480 -208 -498 -8 -19 -39 -92 -68 -163 -30 -71 -57 -135 -62 -143 -6
-10 -48 36 -153 165 -80 98 -152 179 -160 180 -8 1 -235 2 -503 4 l-488 3 -9
-22 c-4 -11 -36 -118 -70 -236 -35 -118 -89 -307 -122 -420 -33 -113 -62 -216
-65 -230 -10 -66 52 -72 123 -12 77 65 378 302 384 302 3 0 28 -58 57 -128 29
-70 134 -327 234 -572 99 -245 183 -446 184 -448 4 -4 461 -130 495 -137 22
-4 223 -58 595 -159 107 -30 798 -216 905 -245 41 -11 142 -38 223 -60 82 -21
151 -42 154 -45 6 -5 89 -285 99 -331 14 -67 65 -219 74 -225 17 -11 40 -17
494 -146 348 -99 413 -114 434 -105 19 9 23 17 20 39 -2 15 -251 396 -553 847
-302 451 -564 843 -582 870 -18 28 -37 57 -43 65 -132 193 -210 312 -210 319
0 5 -3 11 -7 13 -5 2 -45 58 -90 125 l-82 122 13 38 c12 34 114 279 136 328 5
11 30 70 55 130 26 61 52 124 60 140 7 17 43 102 80 190 67 159 115 273 140
330 7 17 83 199 170 405 86 206 166 394 176 417 11 24 35 82 55 130 20 49 47
112 60 141 45 100 174 410 174 420 0 15 -36 42 -56 41 -10 0 -48 -16 -84 -35z"/>
</g>
</svg>
